<?xml version="1.0" encoding="UTF-8" standalone="no"?>
<svg
   xmlns:dc="http://purl.org/dc/elements/1.1/"
   xmlns:cc="http://creativecommons.org/ns#"
   xmlns:rdf="http://www.w3.org/1999/02/22-rdf-syntax-ns#"
   xmlns:svg="http://www.w3.org/2000/svg"
   xmlns="http://www.w3.org/2000/svg"
   id="svg10"
   version="1.1"
   style="overflow:visible"
   viewBox="-240 -126 480 252"
   height="1008px"
   width="1920px">
  <metadata
     id="metadata16">
    <rdf:RDF>
      <cc:Work
         rdf:about="">
        <dc:format>image/svg+xml</dc:format>
        <dc:type
           rdf:resource="http://purl.org/dc/dcmitype/StillImage" />
      </cc:Work>
    </rdf:RDF>
  </metadata>
  <defs
     id="defs14" />
  <rect
     id="rect2"
     fill-opacity="0"
     fill="rgb(0,0,0)"
     height="252"
     width="480"
     y="-126"
     x="-240" />
  <svg
     id="svg8"
     version="1.1"
     y="-250"
     x="-250"
     viewBox="-250 -250 500 500"
     height="500"
     width="500"
     style="overflow:visible">
    <g
       style="fill:#ffffff;stroke-linejoin:round"
       id="g6">
      <path
         style="fill:#ffffff;fill-opacity:1;stroke:#444444;stroke-width:8;stroke-linecap:butt;stroke-linejoin:round;stroke-opacity:1"
         id="path4"
         d="M 0,-112.4664 A 144,107.7776 0 0 1 144,-4.6888 144,107.7776 0 0 1 0,103.0888 144,107.7776 0 0 1 -72.8968,88.108879 c -13.607281,12.844321 -29.68496,20.718001 -47.87,24.357201 8.61744,-12.588081 18.35048,-24.827602 21.551119,-39.110401 A 144,107.7776 0 0 1 -144,-4.688801 144,107.7776 0 0 1 -2e-6,-112.4664 Z" />
    </g>
  </svg>
</svg>
